<svg width="16" height="16" viewBox="0 0 16 16" fill="none" xmlns="http://www.w3.org/2000/svg">
<path fill-rule="evenodd" clip-rule="evenodd" d="M12.7142 12.7132C10.6768 14.7509 7.65983 15.1911 5.19092 14.0493C4.82645 13.9026 4.52764 13.784 4.24356 13.784C3.45231 13.7887 2.46742 14.5559 1.95555 14.0447C1.44368 13.5327 2.21149 12.5471 2.21149 11.751C2.21149 11.4669 2.09759 11.1734 1.95086 10.8083C0.808533 8.33974 1.24939 5.32179 3.28682 3.2848C5.88771 0.68295 10.1133 0.68295 12.7142 3.28413C15.3198 5.89 15.3151 10.1121 12.7142 12.7132Z" stroke="#94A3B8" stroke-width="1.5" stroke-linecap="round" stroke-linejoin="round"/>
<path d="M10.6262 8.27535H10.6322" stroke="#94A3B8" stroke-width="2" stroke-linecap="round" stroke-linejoin="round"/>
<path d="M7.95356 8.27535H7.95956" stroke="#94A3B8" stroke-width="2" stroke-linecap="round" stroke-linejoin="round"/>
<path d="M5.2809 8.27535H5.28689" stroke="#94A3B8" stroke-width="2" stroke-linecap="round" stroke-linejoin="round"/>
</svg>
